<svg xmlns:inkscape="http://www.inkscape.org/namespaces/inkscape" xmlns:sodipodi="http://sodipodi.sourceforge.net/DTD/sodipodi-0.dtd" xmlns="http://www.w3.org/2000/svg" xmlns:svg="http://www.w3.org/2000/svg" version="1.1" id="svg2" sodipodi:docname="2981008.eps" viewBox="0 453.18 264.22 54.44"><defs id="defs6"></defs><sodipodi:namedview id="namedview4" pagecolor="#ffffff" bordercolor="#000000" borderopacity="0.25" inkscape:showpageshadow="2" inkscape:pageopacity="0.0" inkscape:pagecheckerboard="0" inkscape:deskcolor="#d1d1d1"></sodipodi:namedview><g id="g8" inkscape:groupmode="layer" inkscape:label="ink_ext_XXXXXX" transform="matrix(1.3333333,0,0,-1.3333333,0,571.50667)"><g id="g10" transform="scale(0.1)"><path xmlns="http://www.w3.org/2000/svg" d="m 258.852,858.461 c 6.457,-4.289 15.636,-11.223 25.05,-22.09 9.344,-10.73 19.239,-25.711 25.887,-43.93 16.438,-44.222 24.406,-88.25 33.457,-115.16 -6.719,12.188 -17.187,27.617 -30.562,42.578 -13.309,14.95 -29.723,29.161 -46.821,38.211 -23.488,12.442 -38.66,18.149 -47.586,22.289 -2.722,1.032 -5.414,2.102 -8.007,3.473 -10.247,5.289 -17.758,12.578 -24.43,21.867 -6.43,9.242 -12.406,20.332 -12.629,32.84 -0.246,12.242 6.949,23.981 21.531,30.102 14.27,6.148 35.492,5.629 54.281,-4.172 3.586,-1.699 6.704,-3.899 9.829,-6.008" style="fill:#1b1829;fill-opacity:1;fill-rule:nonzero;stroke:none" id="path198"></path><path xmlns="http://www.w3.org/2000/svg" d="m 87.9258,784.539 c 0.9805,-5.687 2.7109,-14.5 9.9219,-26.988 7.3283,-12.313 20.1403,-28.051 41.4613,-42.211 26.476,-17.699 63.367,-26.871 97.742,-33.129 34.586,-6.449 66.605,-11.262 91.539,-13.902 -24.879,-0.02 -57.617,-1.809 -93.418,-5.059 -35.734,-3.07 -75.883,-7.84 -118.176,0.172 -29.7499,5.637 -55.3202,19.617 -74.0624,36.719 -18.957,17.05 -30.6914,37.781 -36.3711,54.789 -1.96875,4.929 -3.21875,10.308 -4.54687,15.711 C 1.05078,776.582 0.015625,782.762 0.0507813,788.82 -0.6875,813.141 7.08984,834.41 17.7578,850.699 c 11.0039,16.262 25.6328,27.531 39.6797,32.832 14.1211,5.379 26.9336,4.731 35.043,1.168 8.2615,-3.738 11.9645,-9.519 12.4375,-15.609 0.504,-6.199 -1.887,-12.481 -4.348,-18.379 -2.4997,-6.211 -4.8942,-12.313 -6.6833,-18.59 -1.8125,-6.281 -3.3008,-12.891 -4.5742,-19.851 -1.1172,-6.989 -1.9297,-14.418 -1.7031,-20.68 0.0039,-1.18 -0.0703,-2.328 0.0781,-3.348 0.0234,-0.523 -0.0078,-1.043 -0.0312,-1.613 l 0.2695,-2.09" style="fill:#1b1829;fill-opacity:1;fill-rule:nonzero;stroke:none" id="path200"></path><path xmlns="http://www.w3.org/2000/svg" d="m 161.066,562.172 c 3.348,7.156 8.981,17.547 18.954,28.598 9.882,10.921 24.296,22.781 43.152,30.062 22.68,8.898 45.91,12.648 66.305,12.656 20.461,0.184 37.98,-3.5 50.992,-6.847 -13.309,0.781 -31.141,-2.493 -47.235,-11.782 -16.152,-9 -30.164,-23.718 -37.207,-39.589 -4.972,-10.891 -7.578,-19.969 -9.757,-27.372 -2.02,-7.449 -3.579,-13.187 -4.75,-17.5 -0.504,-2.628 -1.168,-5.25 -2.036,-7.859 -3.492,-10.23 -9.507,-18.879 -17.679,-26.777 -8.133,-7.684 -18.254,-14.852 -30.34,-16.371 -11.867,-1.52 -23.895,4.289 -31.602,17.738 -7.633,13.16 -10.277,33.91 -3.347,54.262 1.172,3.828 2.882,7.339 4.55,10.781" style="fill:#1b1829;fill-opacity:1;fill-rule:nonzero;stroke:none" id="path202"></path><path xmlns="http://www.w3.org/2000/svg" d="m 1722.81,858.461 c -6.45,-4.289 -15.63,-11.223 -25.05,-22.09 -9.34,-10.73 -19.23,-25.711 -25.88,-43.93 -16.44,-44.222 -24.41,-88.25 -33.46,-115.16 6.72,12.188 17.19,27.617 30.56,42.578 13.31,14.95 29.73,29.161 46.82,38.211 23.49,12.442 38.66,18.149 47.59,22.289 2.72,1.032 5.41,2.102 8,3.473 10.25,5.289 17.77,12.578 24.43,21.867 6.44,9.242 12.41,20.332 12.64,32.84 0.24,12.242 -6.96,23.981 -21.54,30.102 -14.27,6.148 -35.49,5.629 -54.28,-4.172 -3.58,-1.699 -6.7,-3.899 -9.83,-6.008" style="fill:#1b1829;fill-opacity:1;fill-rule:nonzero;stroke:none" id="path204"></path><path xmlns="http://www.w3.org/2000/svg" d="m 1893.74,784.539 c -0.99,-5.687 -2.71,-14.5 -9.92,-26.988 -7.33,-12.313 -20.15,-28.051 -41.46,-42.211 -26.48,-17.699 -63.37,-26.871 -97.74,-33.129 -34.59,-6.449 -66.61,-11.262 -91.55,-13.902 24.89,-0.02 57.62,-1.809 93.42,-5.059 35.74,-3.07 75.89,-7.84 118.17,0.172 29.76,5.637 55.33,19.617 74.07,36.719 18.96,17.05 30.69,37.781 36.37,54.789 1.97,4.929 3.22,10.308 4.55,15.711 0.97,5.941 2,12.121 1.97,18.179 0.73,24.321 -7.05,45.59 -17.71,61.879 -11,16.262 -25.63,27.531 -39.68,32.832 -14.12,5.379 -26.94,4.731 -35.04,1.168 -8.27,-3.738 -11.97,-9.519 -12.44,-15.609 -0.5,-6.199 1.88,-12.481 4.34,-18.379 2.5,-6.211 4.9,-12.313 6.68,-18.59 1.82,-6.281 3.31,-12.891 4.58,-19.851 1.12,-6.989 1.93,-14.418 1.71,-20.68 -0.01,-1.18 0.06,-2.328 -0.08,-3.348 -0.02,-0.523 0.01,-1.043 0.03,-1.613 l -0.27,-2.09" style="fill:#1b1829;fill-opacity:1;fill-rule:nonzero;stroke:none" id="path206"></path><path xmlns="http://www.w3.org/2000/svg" d="m 1820.6,562.172 c -3.35,7.156 -8.98,17.547 -18.95,28.598 -9.89,10.921 -24.3,22.781 -43.15,30.062 -22.68,8.898 -45.92,12.648 -66.31,12.656 -20.46,0.184 -37.98,-3.5 -50.99,-6.847 13.3,0.781 31.14,-2.493 47.23,-11.782 16.15,-9 30.16,-23.718 37.21,-39.589 4.97,-10.891 7.58,-19.969 9.76,-27.372 2.02,-7.449 3.58,-13.187 4.74,-17.5 0.51,-2.628 1.17,-5.25 2.04,-7.859 3.49,-10.23 9.51,-18.879 17.68,-26.777 8.13,-7.684 18.26,-14.852 30.34,-16.371 11.87,-1.52 23.89,4.289 31.6,17.738 7.63,13.16 10.28,33.91 3.35,54.262 -1.17,3.828 -2.88,7.339 -4.55,10.781" style="fill:#1b1829;fill-opacity:1;fill-rule:nonzero;stroke:none" id="path208"></path><path xmlns="http://www.w3.org/2000/svg" d="m 1596.14,657.84 c -6.68,0 -12.1,-3.641 -12.1,-8.141 0,-4.488 5.42,-8.148 12.1,-8.148 6.69,0 12.11,3.66 12.11,8.148 0,4.5 -5.42,8.141 -12.11,8.141" style="fill:#1b1829;fill-opacity:1;fill-rule:nonzero;stroke:none" id="path210"></path><path xmlns="http://www.w3.org/2000/svg" d="m 1565.45,660.559 c -8.91,0 -16.14,-4.868 -16.14,-10.86 0,-6 7.23,-10.859 16.14,-10.859 8.92,0 16.14,4.859 16.14,10.859 0,5.992 -7.22,10.86 -16.14,10.86" style="fill:#1b1829;fill-opacity:1;fill-rule:nonzero;stroke:none" id="path212"></path><path xmlns="http://www.w3.org/2000/svg" d="m 1524.53,664.18 c -11.89,0 -21.52,-6.481 -21.52,-14.481 0,-8 9.63,-14.469 21.52,-14.469 11.89,0 21.52,6.469 21.52,14.469 0,8 -9.63,14.481 -21.52,14.481" style="fill:#1b1829;fill-opacity:1;fill-rule:nonzero;stroke:none" id="path214"></path><path xmlns="http://www.w3.org/2000/svg" d="m 1469.97,669.012 c -15.85,0 -28.69,-8.653 -28.69,-19.313 0,-10.66 12.84,-19.308 28.69,-19.308 15.84,0 28.69,8.648 28.69,19.308 0,10.66 -12.85,19.313 -28.69,19.313" style="fill:#1b1829;fill-opacity:1;fill-rule:nonzero;stroke:none" id="path216"></path><path xmlns="http://www.w3.org/2000/svg" d="m 1397.22,675.441 c -21.13,0 -38.26,-11.519 -38.26,-25.742 0,-14.207 17.13,-25.738 38.26,-25.738 21.13,0 38.25,11.531 38.25,25.738 0,14.223 -17.12,25.742 -38.25,25.742" style="fill:#1b1829;fill-opacity:1;fill-rule:nonzero;stroke:none" id="path218"></path><path xmlns="http://www.w3.org/2000/svg" d="m 1300.22,684.02 c -28.18,0 -51.02,-15.372 -51.02,-34.321 0,-18.957 22.84,-34.32 51.02,-34.32 28.16,0 51.01,15.363 51.01,34.32 0,18.949 -22.85,34.321 -51.01,34.321" style="fill:#1b1829;fill-opacity:1;fill-rule:nonzero;stroke:none" id="path220"></path><path xmlns="http://www.w3.org/2000/svg" d="m 1170.88,695.461 c -37.56,0 -68.01,-20.492 -68.01,-45.762 0,-25.269 30.45,-45.758 68.01,-45.758 37.56,0 68.01,20.489 68.01,45.758 0,25.27 -30.45,45.762 -68.01,45.762" style="fill:#1b1829;fill-opacity:1;fill-rule:nonzero;stroke:none" id="path222"></path><path xmlns="http://www.w3.org/2000/svg" d="m 998.434,710.711 c -50.082,0 -90.684,-27.313 -90.684,-61.012 0,-33.687 40.602,-61.019 90.684,-61.019 50.086,0 90.686,27.332 90.686,61.019 0,33.699 -40.6,61.012 -90.686,61.012" style="fill:#1b1829;fill-opacity:1;fill-rule:nonzero;stroke:none" id="path224"></path><path xmlns="http://www.w3.org/2000/svg" d="m 402.52,659.852 c -6.684,0 -12.106,-3.653 -12.106,-8.153 0,-4.488 5.422,-8.14 12.106,-8.14 6.683,0 12.105,3.652 12.105,8.14 0,4.5 -5.422,8.153 -12.105,8.153" style="fill:#1b1829;fill-opacity:1;fill-rule:nonzero;stroke:none" id="path226"></path><path xmlns="http://www.w3.org/2000/svg" d="m 433.211,662.559 c -8.914,0 -16.141,-4.86 -16.141,-10.86 0,-6 7.227,-10.859 16.141,-10.859 8.914,0 16.141,4.859 16.141,10.859 0,6 -7.227,10.86 -16.141,10.86" style="fill:#1b1829;fill-opacity:1;fill-rule:nonzero;stroke:none" id="path228"></path><path xmlns="http://www.w3.org/2000/svg" d="m 474.133,666.18 c -11.887,0 -21.52,-6.481 -21.52,-14.481 0,-8 9.633,-14.48 21.52,-14.48 11.883,0 21.515,6.48 21.515,14.48 0,8 -9.632,14.481 -21.515,14.481" style="fill:#1b1829;fill-opacity:1;fill-rule:nonzero;stroke:none" id="path230"></path><path xmlns="http://www.w3.org/2000/svg" d="m 528.695,671.012 c -15.847,0 -28.687,-8.653 -28.687,-19.313 0,-10.66 12.84,-19.308 28.687,-19.308 15.848,0 28.696,8.648 28.696,19.308 0,10.66 -12.848,19.313 -28.696,19.313" style="fill:#1b1829;fill-opacity:1;fill-rule:nonzero;stroke:none" id="path232"></path><path xmlns="http://www.w3.org/2000/svg" d="m 601.445,677.441 c -21.129,0 -38.257,-11.519 -38.257,-25.742 0,-14.219 17.128,-25.738 38.257,-25.738 21.129,0 38.258,11.519 38.258,25.738 0,14.223 -17.129,25.742 -38.258,25.742" style="fill:#1b1829;fill-opacity:1;fill-rule:nonzero;stroke:none" id="path234"></path><path xmlns="http://www.w3.org/2000/svg" d="m 698.449,686.031 c -28.176,0 -51.011,-15.371 -51.011,-34.332 0,-18.949 22.835,-34.32 51.011,-34.32 28.168,0 51.004,15.371 51.004,34.32 0,18.961 -22.836,34.332 -51.004,34.332" style="fill:#1b1829;fill-opacity:1;fill-rule:nonzero;stroke:none" id="path236"></path><path xmlns="http://www.w3.org/2000/svg" d="m 827.785,697.461 c -37.562,0 -68.015,-20.492 -68.015,-45.762 0,-25.269 30.453,-45.758 68.015,-45.758 37.559,0 68.008,20.489 68.008,45.758 0,25.27 -30.449,45.762 -68.008,45.762" style="fill:#1b1829;fill-opacity:1;fill-rule:nonzero;stroke:none" id="path238"></path></g></g></svg>