<svg xmlns="http://www.w3.org/2000/svg" viewBox="0 453.18 264.22 54.44" fill="#1b1829" xmlns:v="https://vecta.io/nano"><path d="M34.514 457.045c.861.572 2.085 1.496 3.34 2.945a18.93 18.93 0 0 1 3.452 5.857c2.192 5.896 3.254 11.767 4.461 15.355-.896-1.625-2.292-3.682-4.075-5.677-1.775-1.993-3.963-3.888-6.243-5.095-3.132-1.659-5.155-2.42-6.345-2.972-.363-.138-.722-.28-1.068-.463-1.366-.705-2.368-1.677-3.257-2.916-.857-1.232-1.654-2.711-1.684-4.379-.033-1.632.927-3.197 2.871-4.014 1.903-.82 4.732-.751 7.237.556.478.227.894.52 1.311.801m-22.791 9.859c.131.758.361 1.933 1.323 3.598.977 1.642 2.685 3.74 5.528 5.628 3.53 2.36 8.449 3.583 13.032 4.417 4.611.86 8.881 1.502 12.205 1.854-3.317.003-7.682.241-12.456.675-4.765.409-10.118 1.045-15.757-.023-3.967-.752-7.376-2.616-9.875-4.896-2.528-2.273-4.092-5.037-4.849-7.305-.262-.657-.429-1.374-.606-2.095-.129-.792-.267-1.616-.262-2.424-.098-3.243.939-6.079 2.361-8.251 1.467-2.168 3.418-3.671 5.291-4.378 1.883-.717 3.591-.631 4.672-.156 1.102.498 1.595 1.269 1.658 2.081.067.827-.252 1.664-.58 2.451-.333.828-.653 1.642-.891 2.479s-.44 1.719-.61 2.647c-.149.932-.257 1.922-.227 2.757.001.157-.009.31.01.446.003.07-.001.139-.004.215l.036.279m9.753 29.65a15.23 15.23 0 0 1 2.527-3.813c1.318-1.456 3.239-3.037 5.754-4.008a24.55 24.55 0 0 1 8.841-1.687c2.728-.025 5.064.467 6.799.913-1.775-.104-4.152.332-6.298 1.571-2.154 1.2-4.022 3.162-4.961 5.279-.663 1.452-1.01 2.663-1.301 3.65l-.633 2.333a8.21 8.21 0 0 1-.271 1.048c-.466 1.364-1.268 2.517-2.357 3.57-1.084 1.025-2.434 1.98-4.045 2.183-1.582.203-3.186-.572-4.214-2.365-1.018-1.755-1.37-4.521-.446-7.235.156-.51.384-.979.607-1.437m208.23-39.508a16.41 16.41 0 0 0-3.34 2.945 18.93 18.93 0 0 0-3.451 5.857c-2.192 5.896-3.255 11.767-4.461 15.355.896-1.625 2.292-3.682 4.075-5.677 1.775-1.993 3.964-3.888 6.243-5.095 3.132-1.659 5.155-2.42 6.345-2.972.363-.138.721-.28 1.067-.463 1.367-.705 2.369-1.677 3.257-2.916.859-1.232 1.655-2.711 1.685-4.379.032-1.632-.928-3.197-2.872-4.014-1.903-.82-4.732-.751-7.237.556-.477.227-.893.52-1.311.801m22.791 9.859c-.132.758-.361 1.933-1.323 3.598-.977 1.642-2.687 3.74-5.528 5.628-3.531 2.36-8.449 3.583-13.032 4.417-4.612.86-8.881 1.502-12.207 1.854 3.319.003 7.683.241 12.456.675 4.765.409 10.119 1.045 15.756-.023 3.968-.752 7.377-2.616 9.876-4.896 2.528-2.273 4.092-5.037 4.849-7.305.263-.657.429-1.374.607-2.095.129-.792.267-1.616.263-2.424.097-3.243-.94-6.079-2.361-8.251-1.467-2.168-3.417-3.671-5.291-4.378-1.883-.717-3.592-.631-4.672-.156-1.103.498-1.596 1.269-1.659 2.081-.067.827.251 1.664.579 2.451.333.828.653 1.642.891 2.479s.441 1.719.611 2.647c.149.932.257 1.922.228 2.757-.001.157.008.31-.011.446-.003.07.001.139.004.215l-.036.279m-9.752 29.65a15.27 15.27 0 0 0-2.527-3.813c-1.319-1.456-3.24-3.037-5.753-4.008-3.024-1.186-6.123-1.686-8.841-1.687-2.728-.025-5.064.467-6.799.913 1.773-.104 4.152.332 6.297 1.571 2.153 1.2 4.021 3.162 4.961 5.279.663 1.452 1.011 2.663 1.301 3.65l.632 2.333a8.33 8.33 0 0 0 .272 1.048c.465 1.364 1.268 2.517 2.357 3.57 1.084 1.025 2.435 1.98 4.045 2.183 1.583.203 3.185-.572 4.213-2.365 1.017-1.755 1.371-4.521.447-7.235-.156-.51-.384-.979-.607-1.437"/><path d="M212.818 483.795c-.891 0-1.613.485-1.613 1.085s.723 1.086 1.613 1.086 1.615-.488 1.615-1.086-.723-1.085-1.615-1.085m-4.092-.363c-1.188 0-2.152.649-2.152 1.448s.964 1.448 2.152 1.448 2.152-.648 2.152-1.448-.963-1.448-2.152-1.448m-5.456-.482c-1.585 0-2.869.864-2.869 1.931s1.284 1.929 2.869 1.929 2.869-.863 2.869-1.929-1.284-1.931-2.869-1.931m-7.274-.645c-2.113 0-3.825 1.154-3.825 2.575s1.712 2.574 3.825 2.574 3.825-1.153 3.825-2.574-1.713-2.575-3.825-2.575m-9.7-.857c-2.817 0-5.101 1.536-5.101 3.432s2.284 3.432 5.101 3.432 5.1-1.537 5.1-3.432-2.283-3.432-5.1-3.432m-12.934-1.144c-3.757 0-6.803 2.05-6.803 4.576s3.045 4.576 6.803 4.576 6.801-2.048 6.801-4.576-3.047-4.576-6.801-4.576m-17.245-1.525c-5.008 0-9.068 2.732-9.068 6.102s4.06 6.101 9.068 6.101 9.068-2.732 9.068-6.101-4.06-6.102-9.068-6.102m-22.993-2.034c-6.678 0-12.091 3.642-12.091 8.135s5.414 8.136 12.091 8.136 12.091-3.644 12.091-8.136-5.413-8.135-12.091-8.135m-79.455 6.782c-.891 0-1.614.487-1.614 1.087s.723 1.085 1.614 1.085 1.614-.487 1.614-1.085-.723-1.087-1.614-1.087"/><path d="M57.761 483.166c-1.189 0-2.152.648-2.152 1.448s.964 1.448 2.152 1.448 2.152-.648 2.152-1.448-.964-1.448-2.152-1.448m5.457-.483c-1.585 0-2.869.864-2.869 1.931s1.284 1.931 2.869 1.931 2.869-.864 2.869-1.931-1.284-1.931-2.869-1.931m7.274-.644c-2.113 0-3.825 1.154-3.825 2.575s1.712 2.574 3.825 2.574 3.826-1.153 3.826-2.574-1.713-2.575-3.826-2.575m9.7-.858c-2.817 0-5.101 1.536-5.101 3.432s2.284 3.432 5.101 3.432 5.101-1.536 5.101-3.432-2.284-3.432-5.101-3.432m12.934-1.145c-3.757 0-6.801 2.049-6.801 4.578s3.045 4.576 6.801 4.576 6.801-2.049 6.801-4.576-3.045-4.578-6.801-4.578m17.245-1.524c-5.008 0-9.069 2.732-9.069 6.102s4.06 6.101 9.069 6.101 9.068-2.732 9.068-6.101-4.06-6.102-9.068-6.102"/></svg>